<svg width="512" height="512" viewBox="0 0 512 512" fill="none" xmlns="http://www.w3.org/2000/svg">
<g clip-path="url(#clip0_401_2)">
<circle cx="256" cy="256" r="240" fill="#FFF"/>
<path d="M455.5 256C455.5 145.216 366.784 56.5 256 56.5C145.216 56.5 56.5 145.216 56.5 256C56.5 366.784 145.216 455.5 256 455.5C366.784 455.5 455.5 366.784 455.5 256Z" stroke="#FDBA74" stroke-width="35" stroke-linecap="round" stroke-linejoin="round"/>
<path d="M256 422.5C348.156 422.5 422.5 348.156 422.5 256C422.5 163.844 348.156 89.5 256 89.5C163.844 89.5 89.5 163.844 89.5 256C89.5 348.156 163.844 422.5 256 422.5Z" fill="#F87171"/>
<path d="M407.031 292.406C391.812 368.125 329.437 422.5 256 422.5C163.844 422.5 89.5 348.156 89.5 256C89.5 220.125 99.25 186.875 116.5 159.25L256 256L407.031 292.406Z" fill="#DC2626"/>
<path d="M256 89.5V256H422.5C422.5 163.844 348.156 89.5 256 89.5Z" fill="#FCA5A5"/>
<path d="M256 256L116.5 159.25C113.187 113.875 146.437 74.3125 191.812 71.0312L256 89.5V256Z" fill="#FCA5A5"/>
<path d="M256 256L407.031 292.406C447.125 277.188 469.312 232.562 454.094 192.469L422.5 256H256Z" fill="#FCA5A5"/>
<path d="M344.5 164.5C354.165 164.5 362 156.665 362 147C362 137.335 354.165 129.5 344.5 129.5C334.835 129.5 327 137.335 327 147C327 156.665 334.835 164.5 344.5 164.5Z" fill="#FEF3C7"/>
<path d="M167.5 212.5C177.165 212.5 185 204.665 185 195C185 185.335 177.165 177.5 167.5 177.5C157.835 177.5 150 185.335 150 195C150 204.665 157.835 212.5 167.5 212.5Z" fill="#FEF3C7"/>
<path d="M196 340C205.665 340 213.5 332.165 213.5 322.5C213.5 312.835 205.665 305 196 305C186.335 305 178.5 312.835 178.5 322.5C178.5 332.165 186.335 340 196 340Z" fill="#FEF3C7"/>
<path d="M256 256L344.5 164.5" stroke="white" stroke-width="10" stroke-linecap="round"/>
<path d="M256 256L167.5 212.5" stroke="white" stroke-width="10" stroke-linecap="round"/>
<path d="M256 256L196 340" stroke="white" stroke-width="10" stroke-linecap="round"/>
<rect x="256" y="256" width="180" height="90" rx="10" fill="#6B7280"/>
<path d="M282 293.5H330" stroke="white" stroke-width="12" stroke-linecap="round"/>
<rect x="256" y="346" width="180" height="90" rx="10" fill="#6B7280"/>
<path d="M306 372.5V410.5M287 391.5H325" stroke="white" stroke-width="12" stroke-linecap="round"/>
<rect x="346" y="346" width="90" height="180" rx="10" transform="rotate(-90 346 346)" fill="#4ADE80"/>
<path d="M372 383.5H420M372 400.5H420" stroke="white" stroke-width="12" stroke-linecap="round"/>
<rect x="436" y="256" width="90" height="90" rx="10" fill="#374151"/>
<path d="M462.435 322.435L499.565 285.305M499.565 322.435L462.435 285.305" stroke="white" stroke-width="12" stroke-linecap="round"/>
</g>
<defs>
<clipPath id="clip0_401_2">
<rect width="512" height="512" fill="white"/>
</clipPath>
</defs>
</svg>
